# xmcd
# Copyright (C) 1995-1998 Ti Kan
#
# Track frame offsets:
#       150
#       14987
#       32900
#       47738
#       60967
#       74799
#
# Disc length: 1100 seconds
#
# Revision: 0
# Processed by: cddbd v1.5.2PL0 Copyright (c) Steve Scherf et al.
# Submitted via: CD-Transfer v1.0
#
DISCID=57044a06
DTITLE=Weihnachten 09 - 
DYEAR=09
DGENRE=
TTITLE0=Juzi/Drinn´ In Der Hütt´n
TTITLE1=Juzi/Schifoan
TTITLE2=Juzi/Morgenstern
TTITLE3=Juzi/Winterwunderland Und Schifoan
TTITLE4=Juzi/Es Wird Scho Glei Dumpa
TTITLE5=Juzi/Lustig Hirten, Auf Vom Schlaf
EXTD=
EXTT0=
EXTT1=
EXTT2=
EXTT3=
EXTT4=
EXTT5=
PLAYORDER=
